<svg version="1.1" xmlns="http://www.w3.org/2000/svg" xmlns:xlink="http://www.w3.org/1999/xlink" width="412" height="316"><defs/><g><g transform="translate(-222,-45) scale(1,1)"><rect fill="#ffffff" stroke="none" x="344" y="104" width="152" height="62"/></g><g transform="translate(-222,-45) scale(1,1)"><path fill="none" stroke="#000000" d="M 344 104 L 496 104 L 496 166 L 344 166 L 344 104 Z Z" stroke-miterlimit="10"/></g><g transform="translate(-222,-45) scale(1,1)"><path fill="none" stroke="#000000" d="M 344 129 L 496 129" stroke-miterlimit="10"/></g><g transform="translate(-222,-45) scale(1,1)"><g><path fill="none" stroke="none"/><text fill="#000000" stroke="none" font-family="Arial" font-size="13px" font-style="normal" font-weight="bold" text-decoration="none" x="396" y="123.5">Concept</text></g></g><g transform="translate(-222,-45) scale(1,1)"><g><path fill="none" stroke="none"/><text fill="#000000" stroke="none" font-family="Arial" font-size="13px" font-style="normal" font-weight="normal" text-decoration="none" x="349" y="146.5">abstract: Boolean</text></g></g><g transform="translate(-222,-45) scale(1,1)"><g><path fill="none" stroke="none"/><text fill="#000000" stroke="none" font-family="Arial" font-size="13px" font-style="normal" font-weight="normal" text-decoration="none" x="349" y="161.5">name: String</text></g></g><g transform="translate(-222,-45) scale(1,1)"><rect fill="#ffffff" stroke="none" x="376" y="200" width="106" height="62"/></g><g transform="translate(-222,-45) scale(1,1)"><path fill="none" stroke="#000000" d="M 376 200 L 482 200 L 482 262 L 376 262 L 376 200 Z Z" stroke-miterlimit="10"/></g><g transform="translate(-222,-45) scale(1,1)"><path fill="none" stroke="#000000" d="M 376 225 L 482 225" stroke-miterlimit="10"/></g><g transform="translate(-222,-45) scale(1,1)"><g><path fill="none" stroke="none"/><text fill="#000000" stroke="none" font-family="Arial" font-size="13px" font-style="normal" font-weight="bold" text-decoration="none" x="404.5" y="219.5">Property</text></g></g><g transform="translate(-222,-45) scale(1,1)"><g><path fill="none" stroke="none"/><text fill="#000000" stroke="none" font-family="Arial" font-size="13px" font-style="normal" font-weight="normal" text-decoration="none" x="381" y="242.5">name: String</text></g></g><g transform="translate(-222,-45) scale(1,1)"><g><path fill="none" stroke="none"/><text fill="#000000" stroke="none" font-family="Arial" font-size="13px" font-style="normal" font-weight="normal" text-decoration="none" x="381" y="257.5">derived: Boolean</text></g></g><g transform="translate(-222,-45) scale(1,1)"><path fill="none" stroke="#000000" d="M 424 166 L 424 200" stroke-miterlimit="10"/></g><g transform="translate(-222,-45) scale(1,1)"><g><path fill="none" stroke="none"/><text fill="#000000" stroke="none" font-family="Arial" font-size="13px" font-style="normal" font-weight="normal" text-decoration="none" x="394.5" y="195.5">0..*</text></g></g><g transform="translate(-222,-45) scale(1,1)"><rect fill="#ffffff" stroke="none" x="512" y="224" width="112" height="62"/></g><g transform="translate(-222,-45) scale(1,1)"><path fill="none" stroke="#000000" d="M 512 224 L 624 224 L 624 286 L 512 286 L 512 224 Z Z" stroke-miterlimit="10"/></g><g transform="translate(-222,-45) scale(1,1)"><path fill="none" stroke="#000000" d="M 512 249 L 624 249" stroke-miterlimit="10"/></g><g transform="translate(-222,-45) scale(1,1)"><g><path fill="none" stroke="none"/><text fill="#000000" stroke="none" font-family="Arial" font-size="13px" font-style="normal" font-weight="bold" text-decoration="none" x="553.5" y="243.5">Type</text></g></g><g transform="translate(-222,-45) scale(1,1)"><g><path fill="none" stroke="none"/><text fill="#000000" stroke="none" font-family="Arial" font-size="13px" font-style="normal" font-weight="normal" text-decoration="none" x="517" y="266.5">name: String</text></g></g><g transform="translate(-222,-45) scale(1,1)"><g><path fill="none" stroke="none"/><text fill="#000000" stroke="none" font-family="Arial" font-size="13px" font-style="normal" font-weight="normal" text-decoration="none" x="517" y="281.5">cardinality: String</text></g></g><g transform="translate(-222,-45) scale(1,1)"><path fill="none" stroke="#000000" d="M 482 248 L 512 248" stroke-miterlimit="10"/></g><g transform="translate(-222,-45) scale(1,1)"><path fill="none" stroke="#000000" d="M 501.83732514237585 252.209517756016 L 512 248 L 501.83732514237585 243.790482243984" stroke-miterlimit="10"/></g><g transform="translate(-222,-45) scale(1,1)"><rect fill="#ffffff" stroke="none" x="232" y="232" width="79" height="32"/></g><g transform="translate(-222,-45) scale(1,1)"><path fill="none" stroke="#000000" d="M 232 232 L 311 232 L 311 264 L 232 264 L 232 232 Z Z" stroke-miterlimit="10"/></g><g transform="translate(-222,-45) scale(1,1)"><g><path fill="none" stroke="none"/><text fill="#000000" stroke="none" font-family="Arial" font-size="13px" font-style="normal" font-weight="bold" text-decoration="none" x="239" y="251.5">Expression</text></g></g><g transform="translate(-222,-45) scale(1,1)"><path fill="none" stroke="#000000" d="M 376 248 L 311 248" stroke-miterlimit="10"/></g><g transform="translate(-222,-45) scale(1,1)"><path fill="none" stroke="#000000" d="M 321.16267485762415 243.790482243984 L 311 248 L 321.16267485762415 252.209517756016" stroke-miterlimit="10"/></g><g transform="translate(-222,-45) scale(1,1)"><g><path fill="none" stroke="none"/><text fill="#000000" stroke="none" font-family="Arial" font-size="13px" font-style="normal" font-weight="normal" text-decoration="none" x="315.5" y="244.5">value</text></g></g><g transform="translate(-222,-45) scale(1,1)"><g><path fill="none" stroke="none"/><text fill="#000000" stroke="none" font-family="Arial" font-size="13px" font-style="normal" font-weight="normal" text-decoration="none" x="318.5" y="265.5">0..1</text></g></g><g transform="translate(-222,-45) scale(1,1)"><rect fill="#ffffff" stroke="none" x="376" y="304" width="91" height="47"/></g><g transform="translate(-222,-45) scale(1,1)"><path fill="none" stroke="#000000" d="M 376 304 L 467 304 L 467 351 L 376 351 L 376 304 Z Z" stroke-miterlimit="10"/></g><g transform="translate(-222,-45) scale(1,1)"><path fill="none" stroke="#000000" d="M 376 329 L 467 329" stroke-miterlimit="10"/></g><g transform="translate(-222,-45) scale(1,1)"><g><path fill="none" stroke="none"/><text fill="#000000" stroke="none" font-family="Arial" font-size="13px" font-style="normal" font-weight="bold" text-decoration="none" x="387.5" y="323.5">Association</text></g></g><g transform="translate(-222,-45) scale(1,1)"><g><path fill="none" stroke="none"/><text fill="#000000" stroke="none" font-family="Arial" font-size="13px" font-style="normal" font-weight="normal" text-decoration="none" x="381" y="346.5">name: String</text></g></g><g transform="translate(-222,-45) scale(1,1)"><path fill="none" stroke="#000000" d="M 416 304 L 416 262" stroke-miterlimit="10"/></g><g transform="translate(-222,-45) scale(1,1)"><path fill="none" stroke="#000000" d="M 420.209517756016 272.16267485762415 L 416 262 L 411.790482243984 272.16267485762415" stroke-miterlimit="10"/></g><g transform="translate(-222,-45) scale(1,1)"><g><path fill="none" stroke="none"/><text fill="#000000" stroke="none" font-family="Arial" font-size="13px" font-style="normal" font-weight="normal" text-decoration="none" x="382.5" y="284.5">ends</text></g></g><g transform="translate(-222,-45) scale(1,1)"><g><path fill="none" stroke="none"/><text fill="#000000" stroke="none" font-family="Arial" font-size="13px" font-style="normal" font-weight="normal" text-decoration="none" x="423.5" y="283.5">2</text></g></g><g transform="translate(-222,-45) scale(1,1)"><rect fill="#ffffff" stroke="none" x="344" y="56" width="152" height="32"/></g><g transform="translate(-222,-45) scale(1,1)"><path fill="none" stroke="#000000" d="M 344 56 L 496 56 L 496 88 L 344 88 L 344 56 Z Z" stroke-miterlimit="10"/></g><g transform="translate(-222,-45) scale(1,1)"><g><path fill="none" stroke="none"/><text fill="#000000" stroke="none" font-family="Arial" font-size="13px" font-style="normal" font-weight="bold" text-decoration="none" x="388" y="75.5">Inheritance</text></g></g><g transform="translate(-222,-45) scale(1,1)"><path fill="none" stroke="#000000" d="M 344 72 L 248 72 L 248 136 L 344 136" stroke-miterlimit="10"/></g><g transform="translate(-222,-45) scale(1,1)"><g><path fill="none" stroke="none"/><text fill="#000000" stroke="none" font-family="Arial" font-size="13px" font-style="normal" font-weight="normal" text-decoration="none" x="247" y="67.5">generalizations</text></g></g><g transform="translate(-222,-45) scale(1,1)"><g><path fill="none" stroke="none"/><text fill="#000000" stroke="none" font-family="Arial" font-size="13px" font-style="normal" font-weight="normal" text-decoration="none" x="318.5" y="92.5">0..*</text></g></g><g transform="translate(-222,-45) scale(1,1)"><g><path fill="none" stroke="none"/><text fill="#000000" stroke="none" font-family="Arial" font-size="13px" font-style="normal" font-weight="normal" text-decoration="none" x="271.5" y="156.5">descendant</text></g></g><g transform="translate(-222,-45) scale(1,1)"><path fill="none" stroke="#000000" d="M 496 72 L 592 72 L 592 136 L 496 136" stroke-miterlimit="10"/></g><g transform="translate(-222,-45) scale(1,1)"><g><path fill="none" stroke="none"/><text fill="#000000" stroke="none" font-family="Arial" font-size="13px" font-style="normal" font-weight="normal" text-decoration="none" x="504" y="68.5">specializations</text></g></g><g transform="translate(-222,-45) scale(1,1)"><g><path fill="none" stroke="none"/><text fill="#000000" stroke="none" font-family="Arial" font-size="13px" font-style="normal" font-weight="normal" text-decoration="none" x="506.5" y="90.5">0..*</text></g></g><g transform="translate(-222,-45) scale(1,1)"><g><path fill="none" stroke="none"/><text fill="#000000" stroke="none" font-family="Arial" font-size="13px" font-style="normal" font-weight="normal" text-decoration="none" x="502.5" y="155.5">ancestor</text></g></g></g></svg>